<svg id="Ebene_1" data-name="Ebene 1" xmlns="http://www.w3.org/2000/svg" viewBox="0 0 150 19.23"><defs><style>.cls-1{fill:#40ba9b;}</style></defs><title>ResearchGate_NewGreen</title><path class="cls-1" d="M10.25,17.88a39.65,39.65,0,0,1-4-6.1c-.86,0-1.42,0-2.06,0v4.45c0,1.65.38,2,1.1,2.1l1.38.19v.77c-.66,0-2.21-.08-3.41-.08s-2.5.05-3.22.08v-.77l1-.19c.69-.13,1.09-.45,1.09-2.1V5.69C2.1,4,1.7,3.71,1,3.58L0,3.4V2.62c.67,0,1.73,0,2.8,0s2.42-.08,4-.08c3,0,5.35,1.38,5.35,4.37a4.89,4.89,0,0,1-3.75,4.55,32,32,0,0,0,4,5.65,3.91,3.91,0,0,0,2.61,1.41v.69a3.35,3.35,0,0,1-1.23.21A4.52,4.52,0,0,1,10.25,17.88ZM9.88,7.07c0-2.13-1.33-3.3-3.57-3.3-.72,0-1.54,0-2.16,0v6.69c.62.05,1,.08,1.92.08C8.44,10.59,9.88,9.17,9.88,7.07Z" transform="translate(0 -0.39)"/><path class="cls-1" d="M15.45,13c0-4.05,2.42-7,5.88-7A4.73,4.73,0,0,1,26.23,11a6.05,6.05,0,0,1-.05.95h-8.6a7,7,0,0,0,0,.78C17.55,15.59,19,18,22,18a7.71,7.71,0,0,0,3.52-.75l.08.67c-.51.83-2.19,1.65-4.1,1.65C17.55,19.56,15.45,17,15.45,13Zm8-2.08c.45,0,.61-.21.61-.59A2.92,2.92,0,0,0,21.23,7.1c-2.24,0-3.36,2-3.57,3.78Z" transform="translate(0 -0.39)"/><path class="cls-1" d="M28.36,19a31.27,31.27,0,0,0-.07-3.49h1c.24,1.89.8,2.93,3.06,2.93,1.68,0,2.85-.93,2.85-2.42,0-3.33-6.68-1.71-6.68-6.53,0-2.13,1.92-3.51,4.5-3.51a10.27,10.27,0,0,1,3.54.69,22.8,22.8,0,0,0,.05,3h-1A2.42,2.42,0,0,0,32.89,7c-1.6,0-2.63.69-2.63,2.05,0,3.09,6.71,1.81,6.71,6.58,0,2.13-1.95,3.91-4.61,3.91A12.84,12.84,0,0,1,28.36,19Z" transform="translate(0 -0.39)"/><path class="cls-1" d="M39.34,13c0-4.05,2.42-7,5.88-7A4.73,4.73,0,0,1,50.12,11a6.05,6.05,0,0,1,0,.95h-8.6a7,7,0,0,0,0,.78c0,2.87,1.44,5.27,4.42,5.27a7.71,7.71,0,0,0,3.52-.75l.08.67c-.51.83-2.19,1.65-4.1,1.65C41.44,19.56,39.34,17,39.34,13Zm8-2.08c.45,0,.61-.21.61-.59A2.92,2.92,0,0,0,45.12,7.1c-2.24,0-3.36,2-3.57,3.78Z" transform="translate(0 -0.39)"/><path class="cls-1" d="M51.59,16.26c0-2.5,2.21-4.1,5.62-4.1.37,0,1,0,1.44,0V10.64c0-2.05-.91-3.14-3-3.14a6.06,6.06,0,0,0-3,.72l-.14-.78a5.36,5.36,0,0,1,3.65-1.51c3,0,4.5,1.65,4.5,4.23,0,2.08-.1,4.1-.1,6.5,0,1.3.48,1.68,2.1,1.68v.74a4.07,4.07,0,0,1-2,.48,1.75,1.75,0,0,1-1.95-1.81h-.05a4.45,4.45,0,0,1-3.54,1.81A3.26,3.26,0,0,1,51.59,16.26Zm6.95.58c0-.95.05-2.95.08-3.51-.29,0-.75,0-1,0-2.74,0-4,1-4,2.61A2,2,0,0,0,55.8,18,3.65,3.65,0,0,0,58.54,16.84Z" transform="translate(0 -0.39)"/><path class="cls-1" d="M64.64,18.5l.88-.14c.61-.1.88-.26.88-2.13V9.73c0-1.35,0-1.67-1.73-2V7.07a26.12,26.12,0,0,0,3.7-1.28v2a5,5,0,0,1,3.35-1.86,4.46,4.46,0,0,1,1.15.15l-.21,1.84a4,4,0,0,0-1.47-.24,4.66,4.66,0,0,0-2.82,1v7.54c0,1.87.29,2.05.88,2.13l1.22.14v.74c-.66,0-2.1-.1-3.11-.1s-2,.07-2.72.1Z" transform="translate(0 -0.39)"/><path class="cls-1" d="M73.91,13c0-4,2.9-7,6.39-7a10.54,10.54,0,0,1,3.54.63c-.08.88-.1,2.16-.1,3h-1c-.08-1.52-.69-2.53-2.58-2.53C77.88,7.07,76,9.15,76,12.69S77.93,18,80.7,18a5.56,5.56,0,0,0,3.09-.83l.13.7A4.74,4.74,0,0,1,80,19.56C76.17,19.56,73.91,17,73.91,13Z" transform="translate(0 -0.39)"/><path class="cls-1" d="M86,18.5l.88-.14c.61-.1.88-.26.88-2.13V4.49c0-1.36,0-1.68-1.73-2V1.82A20.18,20.18,0,0,0,89.73.39V7.66a6.17,6.17,0,0,1,3.81-1.73c3.14,0,4,1.86,4,4.55v5.75c0,1.87.29,2,.87,2.13l.88.14v.74c-.66,0-1.75-.08-2.77-.08s-2,.05-2.71.08V18.5l.88-.14c.61-.1.87-.26.87-2.13V10.77c0-2-.53-3.27-2.79-3.27a6,6,0,0,0-3.09,1v7.69c0,1.87.29,2,.88,2.13l.88.14v.74c-.67,0-1.76-.08-2.77-.08s-2,.05-2.72.08Z" transform="translate(0 -0.39)"/><path class="cls-1" d="M101.15,11.15c0-5,3.39-8.85,8.26-8.85a13.67,13.67,0,0,1,4.71.8c0,1.23.06,2.4.16,3.81h-1a3.53,3.53,0,0,0-3.89-3.46c-3.6,0-5.89,3.09-5.89,7.51s2.27,7.51,5.86,7.51a6.74,6.74,0,0,0,3.17-.61v-3c0-1.65-.4-2-1.09-2.11l-1-.18v-.78c.66,0,1.73.08,3.22.08,1.2,0,2.08,0,2.74-.08v.78l-.82.16c-.75.16-1,.58-1,2.1v3.89a17.11,17.11,0,0,1-5.51.9C104.14,19.61,101.15,16.21,101.15,11.15Z" transform="translate(0 -0.39)"/><path class="cls-1" d="M118,16.26c0-2.5,2.21-4.1,5.62-4.1.37,0,1,0,1.43,0V10.64c0-2.05-.9-3.14-3-3.14a6.06,6.06,0,0,0-3,.72l-.14-.78a5.36,5.36,0,0,1,3.65-1.51c3,0,4.5,1.65,4.5,4.23,0,2.08-.1,4.1-.1,6.5,0,1.3.48,1.68,2.1,1.68v.74a4.07,4.07,0,0,1-2,.48,1.75,1.75,0,0,1-2-1.81h0a4.45,4.45,0,0,1-3.54,1.81A3.26,3.26,0,0,1,118,16.26Zm7,.58c0-.95,0-2.95.08-3.51-.29,0-.75,0-1,0-2.74,0-4,1-4,2.61A2,2,0,0,0,122.19,18,3.66,3.66,0,0,0,124.94,16.84Z" transform="translate(0 -0.39)"/><path class="cls-1" d="M132.08,16.42V7.5h-1.63V6.64a4.94,4.94,0,0,0,2.74-3.51h.86V6.24h3.86V7.5h-3.86V16c0,1.59.48,2.26,1.78,2.26a6.83,6.83,0,0,0,1.95-.32l.1.53a3.74,3.74,0,0,1-2.9,1.12C132.82,19.56,132.08,18.6,132.08,16.42Z" transform="translate(0 -0.39)"/><path class="cls-1" d="M139.21,13c0-4.05,2.43-7,5.89-7A4.74,4.74,0,0,1,150,11a6.05,6.05,0,0,1-.05.95h-8.61c0,.27,0,.54,0,.78,0,2.87,1.44,5.27,4.42,5.27a7.66,7.66,0,0,0,3.51-.75l.08.67c-.5.83-2.18,1.65-4.1,1.65C141.32,19.56,139.21,17,139.21,13Zm8-2.08c.45,0,.61-.21.61-.59A2.92,2.92,0,0,0,145,7.1c-2.23,0-3.35,2-3.57,3.78Z" transform="translate(0 -0.39)"/></svg>