<svg width="401" height="142" viewBox="0 0 401 142" fill="none" xmlns="http://www.w3.org/2000/svg"><g clip-path="url(#clip0_5637_9410)"><path d="M175.751 68.4222C178.427 71.3338 181.66 73.6785 185.258 75.3172C188.857 76.9558 192.748 77.8551 196.701 77.9616C206.649 77.9616 212.553 72.9814 212.553 65.5814C212.553 57.8306 207 55.399 199.822 52.1491L188.95 47.4145C181.936 44.3983 173.553 38.9623 173.553 27.8447C173.553 16.2711 183.736 7.71375 197.507 7.71375C201.668 7.69705 205.789 8.51629 209.627 10.1228C213.464 11.7294 216.94 14.0905 219.848 17.0661L214.751 23.3088C210.18 18.729 203.978 16.1515 197.507 16.1426C188.95 16.1426 183.268 20.4213 183.268 27.2485C183.268 34.5433 189.99 37.3139 195.894 39.8624L206.766 44.5386C215.569 48.3614 222.396 53.5636 222.396 64.7981C222.396 76.8276 212.436 86.4371 196.467 86.4371C191.522 86.4423 186.629 85.4442 182.081 83.5031C177.534 81.562 173.428 78.7183 170.011 75.1442L175.751 68.4222Z" fill="currentColor"/><path d="M258.379 27.342C261.426 27.325 264.445 27.909 267.266 29.0604C270.086 30.2118 272.652 31.9082 274.816 34.0523L270.07 40.1898C266.715 37.2905 263.243 35.2096 258.73 35.2096C248.548 35.2096 241.194 44.0008 241.194 56.9655C241.194 69.9302 248.209 78.4993 258.555 78.4993C263.885 78.4993 268.398 75.8339 271.753 72.8177L275.973 79.1306C270.962 83.6859 264.461 86.2585 257.69 86.367C242.761 86.367 231.304 75.6001 231.304 56.9655C231.304 38.1089 243.918 27.342 258.379 27.342Z" fill="currentColor"/><path d="M285.934 11.0221C285.934 7.31625 288.821 4.88464 292.527 4.88464C296.233 4.88464 299.12 7.31625 299.12 11.0221C299.02 12.7029 298.282 14.282 297.057 15.4367C295.831 16.5914 294.211 17.2344 292.527 17.2344C290.843 17.2344 289.223 16.5914 287.998 15.4367C286.772 14.282 286.034 12.7029 285.934 11.0221ZM287.664 28.7331H297.156V84.9758H287.664V28.7331Z" fill="currentColor"/><path d="M315.557 2.56995H325.05V74.3258C325.05 77.3419 326.324 78.4993 327.704 78.4993C328.408 78.5148 329.112 78.4361 329.796 78.2655L331.059 85.4434C329.335 86.1407 327.48 86.4558 325.623 86.367C318.445 86.367 315.557 81.8544 315.557 73.6361V2.56995Z" fill="currentColor"/><path d="M342.749 11.0221C342.749 7.31625 345.648 4.88464 349.354 4.88464C353.06 4.88464 355.948 7.31625 355.948 11.0221C355.826 12.6892 355.078 14.2485 353.854 15.3867C352.63 16.5249 351.02 17.1575 349.348 17.1575C347.677 17.1575 346.067 16.5249 344.843 15.3867C343.619 14.2485 342.871 12.6892 342.749 11.0221ZM344.491 28.7331H353.984V84.9758H344.491V28.7331Z" fill="currentColor"/><path d="M373.998 36.4839H365.662V29.306L374.465 28.7332L375.634 12.9861H383.619V28.7332H398.817V36.4839H383.619V67.7324C383.619 74.6766 385.817 78.6046 392.293 78.6046C394.483 78.4501 396.635 77.9449 398.665 77.1082L400.512 84.2861C397.167 85.5097 393.654 86.2115 390.095 86.367C378.066 86.367 374.009 78.7214 374.009 67.6623L373.998 36.4839Z" fill="currentColor"/><path d="M70.6426 141.09C54.7931 141.105 39.4045 135.758 26.98 125.917C14.5555 116.077 5.82597 102.322 2.21134 86.8898C-1.40328 71.4579 0.30966 55.2571 7.07155 40.9223C13.8334 26.5876 25.2464 14.9624 39.4542 7.93756C53.6619 0.912738 69.8285 -1.09837 85.3243 2.23134C100.82 5.56106 114.734 14.0357 124.801 26.2768C134.869 38.5179 140.499 53.8053 140.776 69.6525C141.052 85.4996 135.959 100.974 126.324 113.559C122.684 118.578 118.273 122.989 113.254 126.629C101.038 136.024 86.0539 141.109 70.6426 141.09ZM70.6426 7.81896C55.2913 7.81779 40.4656 13.4105 28.9398 23.5504C17.414 33.6904 9.978 47.6827 8.02329 62.9091C6.06859 78.1354 9.72913 93.5523 18.3199 106.275C26.9107 118.997 39.843 128.153 54.6968 132.03C46.3057 128.067 38.9906 122.145 33.3684 114.763C27.7462 107.38 23.9819 98.7539 22.393 89.6114C20.804 80.4689 21.4371 71.0783 24.2387 62.2318C27.0403 53.3852 31.9283 45.3422 38.4905 38.781C45.0526 32.2199 53.0964 27.3331 61.9434 24.5328C70.7904 21.7325 80.181 21.1009 89.3233 22.6912C98.4656 24.2816 107.091 28.0472 114.473 33.6705C121.855 39.2938 127.776 46.6098 131.737 55.0015C128.189 41.4969 120.272 29.5457 109.221 21.011C98.1699 12.4764 84.6056 7.83801 70.6426 7.81896ZM79.4104 28.8617C67.1802 28.8624 55.3599 33.2707 46.116 41.2787C36.872 49.2866 30.8237 60.3578 29.0796 72.463C27.3355 84.5682 30.0124 96.8965 36.6197 107.188C43.2269 117.48 53.322 125.046 65.0546 128.499C56.5794 123.771 49.9132 116.364 46.1014 107.439C42.2896 98.5144 41.5478 88.5768 43.9924 79.1849C46.4369 69.7931 51.9296 61.4782 59.6089 55.5444C67.2883 49.6106 76.7199 46.3934 86.4247 46.3974H87.4301C89.448 46.3328 91.4662 46.5173 93.4389 46.9468C102.851 48.4897 111.505 53.0525 118.095 59.9465C124.685 66.8405 128.854 75.6913 129.972 85.1629C130.169 83.3537 130.266 81.535 130.264 79.7151C130.251 66.2318 124.89 53.3042 115.356 43.77C105.821 34.2358 92.8938 28.8741 79.4104 28.8617ZM66.6211 59.2569C60.1508 63.3983 55.1372 69.459 52.2819 76.5908C49.4266 83.7227 48.8725 91.5688 50.697 99.0311C52.5216 106.493 56.6336 113.199 62.4575 118.208C68.2815 123.218 75.526 126.282 83.1772 126.97C90.8285 127.659 98.5036 125.938 105.129 122.049C111.754 118.16 116.997 112.297 120.125 105.28C123.252 98.2637 124.108 90.4448 122.572 82.9177C121.037 75.3906 117.186 68.532 111.559 63.3017L111.653 63.5823C112.863 67.448 113.098 71.5532 112.337 75.5318C111.576 79.5105 109.842 83.2389 107.29 86.3848C104.738 89.5306 101.447 91.9961 97.711 93.5614C93.9748 95.1267 89.9094 95.7432 85.8772 95.3559C81.8449 94.9686 77.9712 93.5895 74.6013 91.3416C71.2314 89.0938 68.4701 86.047 66.5636 82.4729C64.6571 78.8988 63.6646 74.9084 63.6746 70.8576C63.6847 66.8068 64.6969 62.8215 66.6211 59.2569ZM87.4651 53.4116C84.0307 53.5514 80.7132 54.6975 77.9248 56.7073C75.1364 58.7171 73.0001 61.5021 71.7815 64.7161C70.563 67.9301 70.3159 71.4313 71.0709 74.7846C71.8259 78.1379 73.5498 81.1954 76.0282 83.577C78.5066 85.9585 81.6303 87.5592 85.011 88.18C88.3918 88.8009 91.8804 88.4144 95.0433 87.0688C98.2062 85.7232 100.904 83.4777 102.801 80.6114C104.698 77.7451 105.711 74.3845 105.714 70.9473C105.717 66.9771 104.372 63.1233 101.901 60.0165C99.4286 56.9096 95.9756 54.7335 92.1062 53.8442C90.5695 53.6052 89.0196 53.4608 87.4651 53.4116Z" fill="currentColor"/></g><defs><clipPath id="clip0_5637_9410"><rect width="400" height="140.285" fill="white" transform="translate(0.5 0.804688)"/></clipPath></defs></svg>